<svg xmlns="http://www.w3.org/2000/svg" viewBox="0 0 1200 630">
  <defs>
    <linearGradient id="bg" x1="0%" y1="0%" x2="100%" y2="100%">
      <stop offset="0%" style="stop-color:#1d4ed8"/>
      <stop offset="100%" style="stop-color:#60a5fa"/>
    </linearGradient>
    <linearGradient id="accent" x1="0%" y1="0%" x2="100%" y2="0%">
      <stop offset="0%" style="stop-color:#ffffff;stop-opacity:0.1"/>
      <stop offset="100%" style="stop-color:#ffffff;stop-opacity:0.03"/>
    </linearGradient>
  </defs>
  <rect width="1200" height="630" fill="url(#bg)"/>
  <circle cx="200" cy="200" r="200" fill="url(#accent)"/>
  <circle cx="1000" cy="150" r="160" fill="url(#accent)"/>
  <circle cx="900" cy="550" r="180" fill="url(#accent)"/>
  <!-- Moon/sleep icon -->
  <g transform="translate(540,130)" fill="none" stroke="white" stroke-width="3" stroke-linecap="round" opacity="0.9">
    <rect x="0" y="0" width="120" height="120" rx="20" fill="white" fill-opacity="0.15" stroke="none"/>
    <path d="M75 65 C75 45 60 30 42 30 C44 26 45 22 45 18 C30 22 20 37 20 55 C20 73 34 88 52 88 C65 88 75 80 80 70 C78 68 76 67 75 65Z" fill="white" fill-opacity="0.15" stroke-width="2.5"/>
    <circle cx="85" cy="35" r="3" fill="white" opacity="0.7" stroke="none"/>
    <circle cx="95" cy="50" r="2" fill="white" opacity="0.5" stroke="none"/>
    <circle cx="100" cy="30" r="2.5" fill="white" opacity="0.6" stroke="none"/>
  </g>
  <text x="600" y="330" text-anchor="middle" fill="white" font-family="system-ui, sans-serif" font-size="44" font-weight="bold" opacity="0.95">Working Around Baby's</text>
  <text x="600" y="390" text-anchor="middle" fill="white" font-family="system-ui, sans-serif" font-size="44" font-weight="bold" opacity="0.95">Nap Schedule</text>
  <rect x="560" y="415" width="80" height="4" rx="2" fill="white" opacity="0.5"/>
  <text x="600" y="465" text-anchor="middle" fill="white" font-family="system-ui, sans-serif" font-size="20" opacity="0.8">Routines · Flexibility · Happy baby, happy parent</text>
  <text x="600" y="570" text-anchor="middle" fill="white" font-family="system-ui, sans-serif" font-size="16" font-weight="600" letter-spacing="3" opacity="0.6">LITTORA</text>
</svg>