<svg xmlns="http://www.w3.org/2000/svg" viewBox="0 0 1200 630">
  <defs>
    <linearGradient id="bg" x1="0%" y1="0%" x2="100%" y2="100%">
      <stop offset="0%" style="stop-color:#7c3aed"/>
      <stop offset="100%" style="stop-color:#a78bfa"/>
    </linearGradient>
    <linearGradient id="accent" x1="0%" y1="0%" x2="100%" y2="0%">
      <stop offset="0%" style="stop-color:#ffffff;stop-opacity:0.12"/>
      <stop offset="100%" style="stop-color:#ffffff;stop-opacity:0.04"/>
    </linearGradient>
  </defs>
  <rect width="1200" height="630" fill="url(#bg)"/>
  <circle cx="100" cy="100" r="180" fill="url(#accent)"/>
  <circle cx="1050" cy="400" r="220" fill="url(#accent)"/>
  <circle cx="600" cy="600" r="120" fill="url(#accent)"/>
  <!-- Heart/care icon -->
  <g transform="translate(540,130)" fill="none" stroke="white" stroke-width="3" stroke-linecap="round" opacity="0.9">
    <rect x="0" y="0" width="120" height="120" rx="20" fill="white" fill-opacity="0.15" stroke="none"/>
    <path d="M60 95 C30 75 20 50 35 38 C50 26 60 40 60 50 C60 40 70 26 85 38 C100 50 90 75 60 95Z" stroke-width="3" fill="white" fill-opacity="0.15"/>
    <path d="M48 58 L56 66 L76 46" stroke-width="3.5"/>
  </g>
  <text x="600" y="330" text-anchor="middle" fill="white" font-family="system-ui, sans-serif" font-size="44" font-weight="bold" opacity="0.95">Caring for a Newborn</text>
  <text x="600" y="390" text-anchor="middle" fill="white" font-family="system-ui, sans-serif" font-size="44" font-weight="bold" opacity="0.95">Tips by WHO</text>
  <rect x="560" y="415" width="80" height="4" rx="2" fill="white" opacity="0.5"/>
  <text x="600" y="465" text-anchor="middle" fill="white" font-family="system-ui, sans-serif" font-size="20" opacity="0.8">Essential care · Hygiene · Safety guidelines</text>
  <text x="600" y="570" text-anchor="middle" fill="white" font-family="system-ui, sans-serif" font-size="16" font-weight="600" letter-spacing="3" opacity="0.6">LITTORA</text>
</svg>