<svg xmlns="http://www.w3.org/2000/svg" viewBox="0 0 1200 630">
  <defs>
    <linearGradient id="bg" x1="0%" y1="0%" x2="100%" y2="100%">
      <stop offset="0%" style="stop-color:#059669"/>
      <stop offset="100%" style="stop-color:#34d399"/>
    </linearGradient>
    <linearGradient id="accent" x1="0%" y1="0%" x2="100%" y2="0%">
      <stop offset="0%" style="stop-color:#ffffff;stop-opacity:0.12"/>
      <stop offset="100%" style="stop-color:#ffffff;stop-opacity:0.04"/>
    </linearGradient>
  </defs>
  <rect width="1200" height="630" fill="url(#bg)"/>
  <circle cx="150" cy="400" r="200" fill="url(#accent)"/>
  <circle cx="1050" cy="200" r="180" fill="url(#accent)"/>
  <circle cx="600" cy="100" r="120" fill="url(#accent)"/>
  <!-- Science/flask icon -->
  <g transform="translate(540,130)" fill="none" stroke="white" stroke-width="3" stroke-linecap="round" opacity="0.9">
    <rect x="0" y="0" width="120" height="120" rx="20" fill="white" fill-opacity="0.15" stroke="none"/>
    <path d="M45 25 L45 55 L25 90 L95 90 L75 55 L75 25" stroke-width="3"/>
    <line x1="40" y1="25" x2="80" y2="25" stroke-width="3"/>
    <path d="M35 75 Q60 60 85 75" stroke-width="2" fill="white" fill-opacity="0.1"/>
    <circle cx="50" cy="80" r="4" fill="white" opacity="0.5" stroke="none"/>
    <circle cx="65" cy="72" r="3" fill="white" opacity="0.4" stroke="none"/>
    <circle cx="75" cy="82" r="3.5" fill="white" opacity="0.45" stroke="none"/>
  </g>
  <text x="600" y="330" text-anchor="middle" fill="white" font-family="system-ui, sans-serif" font-size="44" font-weight="bold" opacity="0.95">The Science Behind</text>
  <text x="600" y="390" text-anchor="middle" fill="white" font-family="system-ui, sans-serif" font-size="44" font-weight="bold" opacity="0.95">Modern Diapers</text>
  <rect x="560" y="415" width="80" height="4" rx="2" fill="white" opacity="0.5"/>
  <text x="600" y="465" text-anchor="middle" fill="white" font-family="system-ui, sans-serif" font-size="20" opacity="0.8">Breathability · Absorbency · Skin protection</text>
  <text x="600" y="570" text-anchor="middle" fill="white" font-family="system-ui, sans-serif" font-size="16" font-weight="600" letter-spacing="3" opacity="0.6">LITTORA</text>
</svg>